Coordinates
version=1
nRows=32
nColumns=22
inDegrees=yes

Units are S.I. units (second, meters, Newtons, ...)
If the header above contains a line with 'inDegrees', this indicates whether rotational values are in degrees (yes) or radians (no).

endheader
time	pelvis_tilt	pelvis_list	pelvis_rotation	pelvis_tx	pelvis_ty	pelvis_tz	hip_flexion_r	hip_adduction_r	hip_rotation_r	knee_angle_r	ankle_angle_r	subtalar_angle_r	hip_flexion_l	hip_adduction_l	hip_rotation_l	knee_angle_l	ankle_angle_l	subtalar_angle_l	lumbar_extension	lumbar_bending	lumbar_rotation
      2.51000000	     -0.21129569	     -2.95137545	    -77.30767932	     -0.03278642	      0.91567048	      0.25706659	     25.91103683	      6.52268846	     -4.39806487	    -45.31778128	     -0.79244599	     -0.72458517	     -6.32596413	     -3.77563286	    -25.62539404	    -18.80997133	     15.14191507	      0.15885724	    -10.60544952	     -2.84540555	     -7.92581944
      2.52000000	     -0.40297130	     -2.84301311	    -77.50678857	     -0.02899656	      0.91460957	      0.26302089	     25.78234823	      6.72630430	     -5.45199354	    -41.74009982	     -0.69729236	     -0.65628629	     -6.78302206	     -3.70990201	    -25.84670268	    -18.58695415	     15.40933356	      0.37452001	    -10.52426464	     -2.69143348	     -8.28714981
      2.53000000	     -0.57655829	     -2.67136478	    -77.65802108	     -0.02522655	      0.91339340	      0.26913475	     25.61081375	      6.91128016	     -6.51897950	    -38.00751807	     -0.64957536	     -0.53952578	     -7.15801698	     -3.63352254	    -26.05948535	    -18.41221961	     15.66860513	      0.49467370	    -10.36326088	     -2.56712699	     -8.68226912
      2.54000000	     -0.71410319	     -2.52439865	    -77.80224423	     -0.02149662	      0.91217755	      0.27547238	     25.29765915	      7.10656378	     -7.54044317	    -34.13535584	     -0.68014757	     -0.38754283	     -7.59936872	     -3.51695459	    -26.24104897	    -18.19098780	     15.89107904	      0.65193945	    -10.22026441	     -2.47444536	     -9.03219059
      2.55000000	     -0.80828927	     -2.36818085	    -77.92347504	     -0.01779296	      0.91089736	      0.28202329	     24.91175231	      7.29061288	     -8.52686687	    -30.20557197	     -0.75828528	     -0.19902167	     -8.05384740	     -3.35818297	    -26.39895468	    -17.95975088	     16.07378060	      0.81461822	    -10.05649666	     -2.42784737	     -9.36875324
      2.56000000	     -0.85291066	     -2.20870988	    -78.01898440	     -0.01411464	      0.90955204	      0.28878821	     24.47581893	      7.45560210	     -9.47119581	    -26.29874106	     -0.86474152	      0.02506053	     -8.52426207	     -3.15582258	    -26.52641818	    -17.72991626	     16.22491264	      0.98588499	     -9.88163820	     -2.43231000	     -9.69427638
      2.57000000	     -0.84341176	     -2.04182730	    -78.08926268	     -0.01046776	      0.90813415	      0.29575662	     24.03169727	      7.59222019	    -10.35401298	    -22.51628143	     -0.95730532	      0.28046706	     -9.00251300	     -2.90827233	    -26.62176867	    -17.50994938	     16.34297300	      1.16860593	     -9.69291922	     -2.49585094	    -10.01079895
      2.58000000	     -0.78814596	     -1.85511681	    -78.12901282	     -0.00684585	      0.90663101	      0.30289367	     23.63157376	      7.69300007	    -11.17110299	    -18.95855611	     -1.02254906	      0.54973391	     -9.45856814	     -2.62931649	    -26.67401643	    -17.32613821	     16.42290293	      1.34811465	     -9.47802297	     -2.60955391	    -10.31867498
      2.59000000	     -0.69694420	     -1.64618067	    -78.13087292	     -0.00321193	      0.90505652	      0.31015294	     23.31099115	      7.75003177	    -11.90595234	    -15.72201989	     -1.04937128	      0.81776428	     -9.87724090	     -2.33064520	    -26.66777208	    -17.19283134	     16.46827849	      1.51690679	     -9.23886860	     -2.75232780	    -10.62833234
      2.60000000	     -0.58999937	     -1.45699923	    -78.09860425	      0.00040202	      0.90347132	      0.31754037	     23.04923374	      7.78204663	    -12.55488203	    -12.89279251	     -0.94816913	      1.14228041	    -10.29271239	     -2.05247358	    -26.61970167	    -17.12899272	     16.48616471	      1.71753855	     -9.02070375	     -2.90109117	    -10.92639891
      2.61000000	     -0.46354713	     -1.21258603	    -78.01783574	      0.00402518	      0.90182516	      0.32496336	     22.95746794	      7.74459357	    -13.13198163	    -10.56610410	     -0.88288974	      1.36959885	    -10.61149247	     -1.77065324	    -26.46519915	    -17.14044241	     16.47300594	      1.84463316	     -8.75197236	     -3.07102568	    -11.25127475
      2.62000000	     -0.35736948	     -1.01784210	    -77.89721641	      0.00766434	      0.90025881	      0.33249855	     22.92624177	      7.68981848	    -13.65315014	     -8.78933755	     -0.68889047	      1.65215548	    -10.94464874	     -1.55567622	    -26.26321105	    -17.23017073	     16.43326299	      1.99444958	     -8.53527250	     -3.19122197	    -11.58316518
      2.63000000	     -0.26529406	     -0.84613458	    -77.75346676	      0.01130713	      0.89877047	      0.34012536	     22.98852353	      7.59959137	    -14.08153967	     -7.60676500	     -0.44361693	      1.91131940	    -11.26235026	     -1.38755485	    -25.99521352	    -17.39999621	     16.34803558	      2.13206728	     -8.34625573	     -3.27611646	    -11.90366282
      2.64000000	     -0.19401415	     -0.71760409	    -77.60028429	      0.01495483	      0.89740520	      0.34787991	     23.11690608	      7.48092279	    -14.40013854	     -7.02911184	     -0.15794480	      2.10726989	    -11.58987771	     -1.27224765	    -25.67336847	    -17.64439808	     16.20737972	      2.24940580	     -8.20153601	     -3.31112007	    -12.20109063
      2.65000000	     -0.15136207	     -0.64176143	    -77.45222156	      0.01862180	      0.89618861	      0.35583910	     23.28687989	      7.34456468	    -14.59856047	     -7.03448382	      0.13409332	      2.23039543	    -11.95692278	     -1.20906468	    -25.32593230	    -17.92899811	     16.00776618	      2.36308630	     -8.09802487	     -3.28158137	    -12.48924668
      2.66000000	     -0.13396425	     -0.62477643	    -77.32110446	      0.02228997	      0.89513828	      0.36403433	     23.46146609	      7.20157482	    -14.64673317	     -7.54204025	      0.39788928	      2.22665025	    -12.36584241	     -1.19445627	    -24.96067941	    -18.26786926	     15.72842411	      2.46007656	     -8.03938732	     -3.19235591	    -12.74644721
      2.67000000	     -0.13105010	     -0.66158252	    -77.18987201	      0.02597980	      0.89425836	      0.37247515	     23.62338463	      7.04477897	    -14.54967652	     -8.46892665	      0.60240807	      2.02036832	    -12.81101207	     -1.21479084	    -24.52855425	    -18.65899638	     15.37677798	      2.57378566	     -8.02057070	     -3.05718449	    -12.97063701
      2.68000000	     -0.15909719	     -0.76485751	    -77.09334723	      0.02963256	      0.89357008	      0.38124924	     23.72653599	      6.92690629	    -14.33732488	     -9.68688031	      0.73076742	      1.64449232	    -13.31059533	     -1.28722311	    -24.11901695	    -19.10137799	     14.92039077	      2.64503973	     -8.03737548	     -2.86080896	    -13.15567852
      2.69000000	     -0.22397525	     -0.92885882	    -77.02308772	      0.03321288	      0.89308064	      0.39034596	     23.74775778	      6.87134705	    -14.04662183	    -11.05465801	      0.70017558	      0.97801521	    -13.83668144	     -1.42879776	    -23.74328147	    -19.63262327	     14.39629745	      2.70018953	     -8.08213164	     -2.60461299	    -13.30502547
      2.70000000	     -0.34002887	     -1.14057566	    -76.96843512	      0.03671783	      0.89281657	      0.39978783	     23.66707264	      6.89990644	    -13.74256029	    -12.42970747	      0.56588699	      0.29681288	    -14.36719658	     -1.64600923	    -23.33022619	    -20.24970239	     13.72882783	      2.70148685	     -8.13024930	     -2.28193028	    -13.40769420
      2.71000000	     -0.52769261	     -1.38655315	    -76.93139825	      0.04008869	      0.89277725	      0.40951372	     23.49347625	      7.04193614	    -13.46356606	    -13.71450023	      0.23543871	     -0.53771237	    -14.84133123	     -1.98033953	    -22.95315267	    -21.02974868	     12.97677002	      2.67855645	     -8.16743800	     -1.88077546	    -13.46641285
      2.72000000	     -0.76930229	     -1.64823760	    -76.90889421	      0.04331181	      0.89296947	      0.41947405	     23.24211719	      7.27532050	    -13.23928703	    -14.86323308	     -0.23281158	     -1.47158656	    -15.22041591	     -2.41435626	    -22.58949191	    -22.00158244	     12.10263127	      2.65048587	     -8.18406239	     -1.43088026	    -13.50326107
      2.73000000	     -1.05561040	     -1.89967453	    -76.90890633	      0.04636698	      0.89338209	      0.42960186	     22.93800211	      7.58671966	    -13.05331142	    -15.85117279	     -0.79145827	     -2.43611256	    -15.44772428	     -2.93680016	    -22.22684604	    -23.20788664	     11.05338986	      2.64318514	     -8.15917693	     -0.95315218	    -13.50849307
      2.74000000	     -1.38557170	     -2.12183957	    -76.93357339	      0.04924774	      0.89400278	      0.43986653	     22.59710628	      7.97002221	    -12.88173619	    -16.67360458	     -1.39006560	     -3.42112986	    -15.49077133	     -3.53884550	    -21.82596752	    -24.65094248	      9.77364014	      2.69260171	     -8.07377568	     -0.45807751	    -13.45269550
      2.75000000	     -1.73244508	     -2.30309017	    -76.99099129	      0.05193114	      0.89480461	      0.45016646	     22.23853425	      8.39273517	    -12.68450415	    -17.36192987	     -2.00643001	     -4.31440725	    -15.31117091	     -4.19802599	    -21.40022148	    -26.37226804	      8.27654774	      2.83111265	     -7.93624122	      0.02111118	    -13.35897297
      2.76000000	     -2.06805699	     -2.44086302	    -77.09804859	      0.05440974	      0.89576889	      0.46045370	     21.86944122	      8.82153927	    -12.45251100	    -17.95998998	     -2.53421741	     -5.09400704	    -14.91212876	     -4.87453980	    -20.94260011	    -28.35071944	      6.51566064	      3.09045246	     -7.75923545	      0.45479314	    -13.21181078
      2.77000000	     -2.36987220	     -2.54299776	    -77.26365846	      0.05667996	      0.89687693	      0.47066871	     21.48388965	      9.22892821	    -12.18867903	    -18.49432549	     -2.93012317	     -5.74343168	    -14.30842799	     -5.53867132	    -20.44392837	    -30.56125160	      4.48940314	      3.48287261	     -7.56683315	      0.82172253	    -13.00834132
      2.78000000	     -2.62365535	     -2.61745068	    -77.49232779	      0.05876495	      0.89811137	      0.48078561	     21.06651830	      9.59565743	    -11.91545975	    -18.96871494	     -3.11416172	     -6.29458887	    -13.52848769	     -6.15697148	    -19.86334393	    -32.94952821	      2.18564497	      4.02998078	     -7.37511784	      1.11377837	    -12.71258173
      2.79000000	     -2.82478890	     -2.67695128	    -77.78098435	      0.06065841	      0.89943924	      0.49071983	     20.60530161	      9.91848405	    -11.60813926	    -19.37784800	     -3.16296130	     -6.71642309	    -12.58327286	     -6.72960127	    -19.22407456	    -35.50922169	     -0.31652730	      4.66056383	     -7.21323329	      1.33356901	    -12.36648670
      2.80000000	     -2.97424343	     -2.73344109	    -78.12643553	      0.06239530	      0.90083516	      0.50045413	     20.09445991	     10.19420596	    -11.28885986	    -19.73554303	     -3.03708283	     -7.05474102	    -11.50725888	     -7.23549041	    -18.48605235	    -38.18337006	     -2.97996599	      5.37027786	     -7.09297621	      1.48829377	    -11.93767575
      2.81000000	     -3.07894715	     -2.79648323	    -78.51593877	      0.06398184	      0.90225506	      0.50993122	     19.53012782	     10.42922702	    -10.95595600	    -20.03175000	     -2.78775795	     -7.30973292	    -10.31086820	     -7.68544904	    -17.67657575	    -40.96456282	     -5.70282852	      6.07990586	     -7.03004677	      1.58770133	    -11.44957053
      2.82000000	     -3.15450029	     -2.86356449	    -78.93343090	      0.06545116	      0.90364753	      0.51911620	     18.92485484	     10.63373490	    -10.60976242	    -20.26595860	     -2.44682921	     -7.49382778	     -8.99445900	     -8.08896810	    -16.80020877	    -43.83469276	     -8.37108165	      6.72381826	     -7.01844823	      1.65120923	    -10.91507608
